<mxfile host="app.diagrams.net" modified="2022-02-12T14:19:18.302Z" agent="5.0 (Macintosh; Intel Mac OS X 10_15_7) AppleWebKit/537.36 (KHTML, like Gecko) Chrome/98.0.4758.80 Safari/537.36" etag="z9qA2JwsvadWq3DrnGVt" version="16.5.6" type="github">
  <diagram id="ZDFApZ_4J50ofM1cNjXg" name="Page-1">
    <mxGraphModel dx="2377" dy="1158" grid="1" gridSize="10" guides="1" tooltips="1" connect="1" arrows="1" fold="1" page="1" pageScale="1" pageWidth="4681" pageHeight="3300" math="0" shadow="0">
      <root>
        <mxCell id="0" />
        <mxCell id="1" parent="0" />
        <mxCell id="x0sq1KCaZ7N70Cs54mBE-20" value="" style="edgeStyle=orthogonalEdgeStyle;rounded=0;orthogonalLoop=1;jettySize=auto;html=1;" edge="1" parent="1" source="x0sq1KCaZ7N70Cs54mBE-18" target="x0sq1KCaZ7N70Cs54mBE-19">
          <mxGeometry relative="1" as="geometry">
            <Array as="points">
              <mxPoint x="430" y="315" />
              <mxPoint x="430" y="240" />
            </Array>
          </mxGeometry>
        </mxCell>
        <mxCell id="x0sq1KCaZ7N70Cs54mBE-34" value="" style="edgeStyle=orthogonalEdgeStyle;rounded=0;orthogonalLoop=1;jettySize=auto;html=1;fontSize=16;" edge="1" parent="1" source="x0sq1KCaZ7N70Cs54mBE-18" target="x0sq1KCaZ7N70Cs54mBE-33">
          <mxGeometry relative="1" as="geometry">
            <Array as="points">
              <mxPoint x="330" y="310" />
            </Array>
          </mxGeometry>
        </mxCell>
        <mxCell id="x0sq1KCaZ7N70Cs54mBE-36" style="edgeStyle=orthogonalEdgeStyle;rounded=0;orthogonalLoop=1;jettySize=auto;html=1;fontSize=16;entryX=0;entryY=0.5;entryDx=0;entryDy=0;" edge="1" parent="1" source="x0sq1KCaZ7N70Cs54mBE-18" target="x0sq1KCaZ7N70Cs54mBE-21">
          <mxGeometry relative="1" as="geometry">
            <mxPoint x="450" y="390" as="targetPoint" />
            <Array as="points">
              <mxPoint x="430" y="315" />
              <mxPoint x="430" y="380" />
            </Array>
          </mxGeometry>
        </mxCell>
        <mxCell id="x0sq1KCaZ7N70Cs54mBE-18" value="Marketing" style="text;strokeColor=none;fillColor=none;html=1;fontSize=24;fontStyle=1;verticalAlign=middle;align=center;" vertex="1" parent="1">
          <mxGeometry x="260" y="290" width="120" height="50" as="geometry" />
        </mxCell>
        <mxCell id="x0sq1KCaZ7N70Cs54mBE-19" value="&lt;font style=&quot;font-size: 16px&quot;&gt;HomePage&lt;/font&gt;" style="whiteSpace=wrap;html=1;fillColor=#ffe6cc;strokeColor=#d79b00;" vertex="1" parent="1">
          <mxGeometry x="460" y="210" width="120" height="60" as="geometry" />
        </mxCell>
        <mxCell id="x0sq1KCaZ7N70Cs54mBE-21" value="&lt;span style=&quot;font-size: 16px&quot;&gt;Faq page&lt;/span&gt;" style="whiteSpace=wrap;html=1;fillColor=#ffe6cc;strokeColor=#d79b00;" vertex="1" parent="1">
          <mxGeometry x="460" y="350" width="120" height="60" as="geometry" />
        </mxCell>
        <mxCell id="x0sq1KCaZ7N70Cs54mBE-23" value="" style="edgeStyle=orthogonalEdgeStyle;rounded=0;orthogonalLoop=1;jettySize=auto;html=1;" edge="1" parent="1" source="x0sq1KCaZ7N70Cs54mBE-25" target="x0sq1KCaZ7N70Cs54mBE-26">
          <mxGeometry relative="1" as="geometry" />
        </mxCell>
        <mxCell id="x0sq1KCaZ7N70Cs54mBE-24" value="" style="edgeStyle=orthogonalEdgeStyle;rounded=0;orthogonalLoop=1;jettySize=auto;html=1;" edge="1" parent="1" source="x0sq1KCaZ7N70Cs54mBE-25" target="x0sq1KCaZ7N70Cs54mBE-27">
          <mxGeometry relative="1" as="geometry" />
        </mxCell>
        <mxCell id="x0sq1KCaZ7N70Cs54mBE-25" value="DashBoard" style="text;strokeColor=none;fillColor=none;html=1;fontSize=24;fontStyle=1;verticalAlign=middle;align=center;" vertex="1" parent="1">
          <mxGeometry x="270" y="490" width="120" height="50" as="geometry" />
        </mxCell>
        <mxCell id="x0sq1KCaZ7N70Cs54mBE-26" value="DashBoard Page" style="whiteSpace=wrap;html=1;fillColor=#d5e8d4;strokeColor=#82b366;" vertex="1" parent="1">
          <mxGeometry x="460" y="450" width="120" height="60" as="geometry" />
        </mxCell>
        <mxCell id="x0sq1KCaZ7N70Cs54mBE-27" value="" style="whiteSpace=wrap;html=1;fillColor=#d5e8d4;strokeColor=#82b366;" vertex="1" parent="1">
          <mxGeometry x="460" y="520" width="120" height="60" as="geometry" />
        </mxCell>
        <mxCell id="x0sq1KCaZ7N70Cs54mBE-28" value="" style="edgeStyle=orthogonalEdgeStyle;rounded=0;orthogonalLoop=1;jettySize=auto;html=1;" edge="1" parent="1" source="x0sq1KCaZ7N70Cs54mBE-30" target="x0sq1KCaZ7N70Cs54mBE-31">
          <mxGeometry relative="1" as="geometry" />
        </mxCell>
        <mxCell id="x0sq1KCaZ7N70Cs54mBE-29" value="" style="edgeStyle=orthogonalEdgeStyle;rounded=0;orthogonalLoop=1;jettySize=auto;html=1;" edge="1" parent="1" source="x0sq1KCaZ7N70Cs54mBE-30" target="x0sq1KCaZ7N70Cs54mBE-32">
          <mxGeometry relative="1" as="geometry" />
        </mxCell>
        <mxCell id="x0sq1KCaZ7N70Cs54mBE-30" value="Admin" style="text;strokeColor=none;fillColor=none;html=1;fontSize=24;fontStyle=1;verticalAlign=middle;align=center;" vertex="1" parent="1">
          <mxGeometry x="260" y="720" width="120" height="50" as="geometry" />
        </mxCell>
        <mxCell id="x0sq1KCaZ7N70Cs54mBE-31" value="" style="whiteSpace=wrap;html=1;fillColor=#b1ddf0;strokeColor=#10739e;" vertex="1" parent="1">
          <mxGeometry x="460" y="690" width="120" height="60" as="geometry" />
        </mxCell>
        <mxCell id="x0sq1KCaZ7N70Cs54mBE-32" value="" style="whiteSpace=wrap;html=1;fillColor=#b1ddf0;strokeColor=#10739e;" vertex="1" parent="1">
          <mxGeometry x="460" y="760" width="120" height="60" as="geometry" />
        </mxCell>
        <mxCell id="x0sq1KCaZ7N70Cs54mBE-33" value="Privacy" style="whiteSpace=wrap;html=1;fontSize=16;fillColor=#ffe6cc;strokeColor=#d79b00;" vertex="1" parent="1">
          <mxGeometry x="460" y="280" width="120" height="60" as="geometry" />
        </mxCell>
        <mxCell id="x0sq1KCaZ7N70Cs54mBE-39" value="" style="edgeStyle=orthogonalEdgeStyle;curved=1;rounded=0;orthogonalLoop=1;jettySize=auto;html=1;fontSize=21;" edge="1" parent="1" source="x0sq1KCaZ7N70Cs54mBE-37" target="x0sq1KCaZ7N70Cs54mBE-38">
          <mxGeometry relative="1" as="geometry">
            <Array as="points">
              <mxPoint x="1140" y="230" />
              <mxPoint x="880" y="230" />
            </Array>
          </mxGeometry>
        </mxCell>
        <mxCell id="x0sq1KCaZ7N70Cs54mBE-41" value="" style="edgeStyle=orthogonalEdgeStyle;curved=1;rounded=0;orthogonalLoop=1;jettySize=auto;html=1;fontSize=21;" edge="1" parent="1" source="x0sq1KCaZ7N70Cs54mBE-37" target="x0sq1KCaZ7N70Cs54mBE-40">
          <mxGeometry relative="1" as="geometry">
            <Array as="points">
              <mxPoint x="1140" y="230" />
              <mxPoint x="1400" y="230" />
            </Array>
          </mxGeometry>
        </mxCell>
        <mxCell id="x0sq1KCaZ7N70Cs54mBE-43" value="" style="edgeStyle=orthogonalEdgeStyle;curved=1;rounded=0;orthogonalLoop=1;jettySize=auto;html=1;fontSize=21;" edge="1" parent="1" source="x0sq1KCaZ7N70Cs54mBE-37" target="x0sq1KCaZ7N70Cs54mBE-42">
          <mxGeometry relative="1" as="geometry" />
        </mxCell>
        <mxCell id="x0sq1KCaZ7N70Cs54mBE-37" value="&lt;font style=&quot;font-size: 21px&quot;&gt;Container&lt;/font&gt;" style="rounded=0;whiteSpace=wrap;html=1;fontSize=16;fillColor=#fad9d5;strokeColor=#ae4132;" vertex="1" parent="1">
          <mxGeometry x="1060" y="140" width="160" height="50" as="geometry" />
        </mxCell>
        <mxCell id="x0sq1KCaZ7N70Cs54mBE-38" value="&lt;font style=&quot;font-size: 21px&quot;&gt;Marketing&lt;/font&gt;" style="rounded=0;whiteSpace=wrap;html=1;fontSize=16;fillColor=#fad7ac;strokeColor=#b46504;" vertex="1" parent="1">
          <mxGeometry x="800" y="310" width="160" height="50" as="geometry" />
        </mxCell>
        <mxCell id="x0sq1KCaZ7N70Cs54mBE-40" value="&lt;font style=&quot;font-size: 21px&quot;&gt;Admin&lt;/font&gt;" style="rounded=0;whiteSpace=wrap;html=1;fontSize=16;fillColor=#dae8fc;strokeColor=#6c8ebf;" vertex="1" parent="1">
          <mxGeometry x="1320" y="310" width="160" height="50" as="geometry" />
        </mxCell>
        <mxCell id="x0sq1KCaZ7N70Cs54mBE-42" value="&lt;font style=&quot;font-size: 21px&quot;&gt;Dashboard&lt;/font&gt;" style="rounded=0;whiteSpace=wrap;html=1;fontSize=16;fillColor=#d5e8d4;strokeColor=#82b366;" vertex="1" parent="1">
          <mxGeometry x="1060" y="310" width="160" height="50" as="geometry" />
        </mxCell>
      </root>
    </mxGraphModel>
  </diagram>
</mxfile>
